<?xml version="1.0" encoding="utf-8"?>
<!-- Generator: Adobe Illustrator 27.1.1, SVG Export Plug-In . SVG Version: 6.00 Build 0)  -->
<svg version="1.1" id="svg9" xmlns="http://www.w3.org/2000/svg" xmlns:xlink="http://www.w3.org/1999/xlink" x="0px" y="0px"
	 viewBox="0 0 592.1 592.1" style="enable-background:new 0 0 592.1 592.1;" xml:space="preserve">
<style type="text/css">
	.st0{display:none;}
	.st1{fill:none;stroke:#000000;stroke-width:17.5;stroke-miterlimit:10;}
</style>
<g id="g1089">
	<g id="stool">
		<path id="path1384" d="M426.2,157.2V135c-0.1-21.2-17.3-38.4-38.5-38.5H204.4c-21.2,0.1-38.4,17.3-38.5,38.5v22.2
			c0,4.8,3.9,8.7,8.7,8.7h8.7l-17.4,320.5c-0.2,2.4,0.7,4.8,2.4,6.4c1.6,1.8,3.9,2.8,6.2,2.8H211c4.6-0.1,8.3-3.6,8.7-8.2l5.4-96
			H270v95.4c0,4.8,3.9,8.7,8.7,8.7h34.7c4.8,0,8.7-3.9,8.7-8.7v-95.4h45.6l6.4,96c0.4,4.5,4.1,8.1,8.7,8.2h34.7c2.4,0,4.7-1,6.2-2.8
			c1.7-1.7,2.6-4,2.4-6.4l-17.4-320.5h8.2c4.8,0.3,8.9-3.4,9.2-8.1C426.2,157.6,426.2,157.4,426.2,157.2L426.2,157.2z M183.3,135
			c0-11.7,9.5-21.2,21.2-21.2h183.2c11.7,0,21.2,9.5,21.2,21.2v13.5H183.3L183.3,135L183.3,135z M356.8,218l7.3,121.5h-42V218H356.8
			L356.8,218z M304.7,339.4h-17.4V218h17.4V339.4z M270,339.4h-42l7.3-121.5H270V339.4z M304.7,478.3h-17.4v-86.8h17.4V478.3z
			 M226,374.2l1-17.4h138.8l1,17.4H226L226,374.2z M408.8,478.3h-17.4l-17.4-269.5c-0.4-4.6-4.1-8.1-8.7-8.2H226.6
			c-4.6,0-8.4,3.6-8.7,8.2l-15.3,269.5h-19.4l17.4-312.3h190.9L408.8,478.3z"/>
	</g>
	<path id="path1381" class="st0" d="M296.1,0C132.7,0,0,132.7,0,296.1c0,163.4,132.7,296.1,296.1,296.1s296.1-132.7,296.1-296.1
		S459.5,0,296.1,0z M296.1,17.4c154,0,278.7,124.7,278.7,278.7S450.1,574.8,296.1,574.8S17.4,450.1,17.4,296.1S142,17.4,296.1,17.4z
		"/>
</g>
<circle class="st1" cx="296.1" cy="296.1" r="287.3"/>
</svg>
