<?xml version="1.0" encoding="utf-8"?>
<!-- Generator: Adobe Illustrator 27.1.1, SVG Export Plug-In . SVG Version: 6.00 Build 0)  -->
<svg version="1.1" id="svg9" xmlns="http://www.w3.org/2000/svg" xmlns:xlink="http://www.w3.org/1999/xlink" x="0px" y="0px"
	 viewBox="0 0 592.1 592.1" style="enable-background:new 0 0 592.1 592.1;" xml:space="preserve">
<style type="text/css">
	.st0{display:none;}
	.st1{display:inline;}
	.st2{fill:none;stroke:#000000;stroke-width:19.1;stroke-linecap:round;stroke-linejoin:round;}
	.st3{fill:none;stroke:#000000;stroke-width:17.5;stroke-miterlimit:10;}
</style>
<g id="g1089" class="st0">
	<path id="path1381" class="st1" d="M296.1,0C132.7,0,0,132.7,0,296.1s132.7,296.1,296.1,296.1s296.1-132.7,296.1-296.1
		S459.5,0,296.1,0z M296.1,17.4c154,0,278.7,124.7,278.7,278.7S450.1,574.8,296.1,574.8S17.4,450.1,17.4,296.1S142,17.4,296.1,17.4
		L296.1,17.4z"/>
</g>
<g id="g14805">
	<path id="path8785" class="st2" d="M135.7,456.4h320.8"/>
	<path id="path8787" class="st2" d="M260.7,456.4V135.7"/>
	<path id="path9515" class="st2" d="M171.8,456.4V189"/>
	<path id="path9517" class="st2" d="M421,456.4V189.2"/>
	<path id="path9519" class="st2" d="M260.7,135.7L421,189.2"/>
	<path id="path9521" class="st2" d="M171.8,189l88.9-53.3"/>
</g>
<circle class="st3" cx="296.1" cy="296.1" r="287.3"/>
</svg>
